<svg width="142" height="794" viewBox="0 0 142 794" fill="none" xmlns="http://www.w3.org/2000/svg">
<g clip-path="url(#clip0_103_5)">
<path d="M25.8571 -3.04L115.457 -3.04L115.457 17.824L54.5291 54.944L54.5291 43.936L115.457 80.032L115.457 100.896L25.8571 101.152L25.8571 77.856L80.0011 77.6L80.0011 81.568L34.6891 54.56L34.6891 43.296L80.0011 15.52L80.0011 20.384L25.8571 20.384L25.8571 -3.04ZM25.8571 118.701L63.7451 118.701L48.5131 124.589L115.457 84.525L115.457 111.277L66.9451 140.205L66.9451 124.717L115.457 153.773L115.457 178.349L48.5131 138.413L63.7451 144.045L25.8571 144.045L25.8571 118.701Z" fill="white"/>
<path d="M26.1643 134.96L115.764 134.96L115.764 177.328C115.764 187.227 113.93 195.931 110.26 203.44C106.591 210.949 101.428 216.795 94.7723 220.976C88.1163 225.243 80.1803 227.376 70.9643 227.376C61.8337 227.376 53.8977 225.243 47.1563 220.976C40.5003 216.795 35.3377 210.949 31.6683 203.44C27.999 195.931 26.1643 187.227 26.1643 177.328L26.1643 134.96ZM46.3883 160.304L46.3883 176.304C46.3883 181.424 47.327 185.861 49.2043 189.616C51.167 193.456 53.983 196.443 57.6523 198.576C61.407 200.709 65.8443 201.776 70.9643 201.776C76.1697 201.776 80.607 200.709 84.2763 198.576C87.9457 196.443 90.719 193.456 92.5964 189.616C94.559 185.861 95.5404 181.424 95.5404 176.304L95.5404 160.304L46.3883 160.304ZM26.1643 212.708L115.764 252.26L115.764 277.22L26.1643 316.9L26.1643 290.532L103.348 259.556L103.348 269.54L26.1643 238.564L26.1643 212.708ZM43.5723 234.34L62.2603 240.868L62.2603 284.644L43.5723 291.172L43.5723 234.34ZM26.1643 308.085L115.764 308.085L115.764 333.429L26.1643 333.429L26.1643 308.085ZM26.1643 335.46L115.764 335.46L115.764 360.804L46.2603 360.804L46.2603 403.556L26.1643 403.556L26.1643 335.46ZM26.1643 411.116L64.0523 411.116L48.8203 417.004L115.764 376.94L115.764 403.692L67.2523 432.62L67.2523 417.132L115.764 446.188L115.764 470.764L48.8203 430.828L64.0523 436.46L26.1643 436.46L26.1643 411.116Z" fill="white"/>
<path d="M26.4059 426.96L116.006 426.96L116.006 472.784C116.006 484.56 113.83 493.349 109.478 499.152C105.211 504.955 99.5793 507.856 92.582 507.856C87.974 507.856 83.9206 506.619 80.422 504.144C77.0086 501.755 74.278 498.341 72.2299 493.904C70.2673 489.552 69.2859 484.347 69.286 478.288L75.43 480.848C75.43 487.163 74.4486 492.667 72.486 497.36C70.6086 502.053 67.8353 505.68 64.1659 508.24C60.5819 510.885 56.1873 512.208 50.9819 512.208C43.2166 512.208 37.1579 509.051 32.8059 502.736C28.5393 496.507 26.4059 487.376 26.4059 475.344L26.4059 426.96ZM44.7099 452.048L44.7099 473.296C44.7099 477.648 45.4353 480.933 46.8859 483.152C48.4219 485.456 50.7259 486.608 53.7979 486.608C56.8699 486.608 59.1313 485.456 60.5819 483.152C62.118 480.933 62.886 477.648 62.886 473.296L62.886 450.256L80.422 450.256L80.422 469.456C80.422 473.723 81.1473 476.923 82.598 479.056C84.0486 481.189 86.2246 482.256 89.126 482.256C92.0273 482.256 94.1606 481.189 95.526 479.056C96.9766 476.923 97.702 473.723 97.702 469.456L97.702 452.048L44.7099 452.048ZM26.4059 515.095L116.006 515.095L116.006 540.439L46.5019 540.439L46.5019 583.191L26.4059 583.191L26.4059 515.095ZM26.4059 582.98L116.006 582.98L116.006 608.324L26.4059 608.324L26.4059 582.98ZM24.6139 647.603C24.6139 640.264 25.5099 633.182 27.3019 626.355C29.1793 619.614 31.5686 614.11 34.4699 609.843L53.1579 618.163C50.5979 622.174 48.4646 626.782 46.7579 631.987C45.1366 637.278 44.3259 642.526 44.3259 647.731C44.3259 651.23 44.6246 654.046 45.2219 656.179C45.9046 658.312 46.7579 659.848 47.7819 660.787C48.8913 661.811 50.1713 662.323 51.6219 662.323C53.6699 662.323 55.2913 661.384 56.4859 659.507C57.6806 657.63 58.6619 655.198 59.4299 652.211C60.1979 649.224 60.9659 645.896 61.7339 642.227C62.5019 638.643 63.4833 635.016 64.6779 631.347C65.8726 627.763 67.4086 624.478 69.2859 621.491C71.2486 618.504 73.7659 616.072 76.8379 614.195C79.9953 612.318 83.9633 611.379 88.7419 611.379C94.1179 611.379 98.9819 612.83 103.334 615.731C107.686 618.718 111.185 623.155 113.83 629.043C116.475 634.931 117.798 642.27 117.798 651.059C117.798 656.947 117.115 662.707 115.75 668.339C114.47 674.056 112.55 679.134 109.99 683.571L91.1739 675.763C93.4779 671.496 95.1846 667.272 96.2939 663.091C97.4886 658.91 98.0859 654.856 98.0859 650.931C98.0859 647.432 97.7019 644.616 96.9339 642.483C96.2513 640.35 95.3126 638.814 94.1179 637.875C92.9233 636.936 91.5579 636.467 90.0219 636.467C88.0593 636.467 86.4806 637.363 85.2859 639.155C84.1766 641.032 83.2379 643.464 82.4699 646.451C81.7873 649.523 81.0619 652.851 80.2939 656.435C79.5259 660.104 78.5446 663.731 77.3499 667.315C76.2406 670.984 74.7046 674.312 72.7419 677.299C70.8646 680.286 68.3473 682.675 65.1899 684.467C62.1179 686.344 58.2353 687.283 53.5419 687.283C48.3366 687.283 43.5153 685.79 39.0779 682.803C34.7259 679.902 31.2273 675.507 28.5819 669.619C25.9366 663.816 24.6139 656.478 24.6139 647.603ZM24.6139 720.238C24.6139 712.899 25.5099 705.817 27.3019 698.99C29.1793 692.249 31.5686 686.745 34.4699 682.478L53.1579 690.798C50.5979 694.809 48.4646 699.417 46.7579 704.622C45.1366 709.913 44.3259 715.161 44.3259 720.366C44.3259 723.865 44.6246 726.681 45.2219 728.814C45.9046 730.947 46.7579 732.483 47.7819 733.422C48.8913 734.446 50.1713 734.958 51.6219 734.958C53.6699 734.958 55.2913 734.019 56.4859 732.142C57.6806 730.265 58.6619 727.833 59.4299 724.846C60.1979 721.859 60.9659 718.531 61.7339 714.862C62.5019 711.278 63.4833 707.651 64.6779 703.982C65.8726 700.398 67.4086 697.113 69.2859 694.126C71.2486 691.139 73.7659 688.707 76.8379 686.83C79.9953 684.953 83.9633 684.014 88.7419 684.014C94.1179 684.014 98.9819 685.465 103.334 688.366C107.686 691.353 111.185 695.79 113.83 701.678C116.475 707.566 117.798 714.905 117.798 723.694C117.798 729.582 117.115 735.342 115.75 740.974C114.47 746.691 112.55 751.769 109.99 756.206L91.1739 748.398C93.4779 744.131 95.1846 739.907 96.2939 735.726C97.4886 731.545 98.0859 727.491 98.0859 723.566C98.0859 720.067 97.7019 717.251 96.9339 715.118C96.2513 712.985 95.3126 711.449 94.1179 710.51C92.9233 709.571 91.5579 709.102 90.0219 709.102C88.0593 709.102 86.4806 709.998 85.2859 711.79C84.1766 713.667 83.2379 716.099 82.4699 719.086C81.7873 722.158 81.0619 725.486 80.2939 729.07C79.5259 732.739 78.5446 736.366 77.3499 739.95C76.2406 743.619 74.7046 746.947 72.7419 749.934C70.8646 752.921 68.3473 755.31 65.1899 757.102C62.1179 758.979 58.2353 759.918 53.5419 759.918C48.3366 759.918 43.5153 758.425 39.0779 755.438C34.7259 752.537 31.2273 748.142 28.5819 742.254C25.9366 736.451 24.6139 729.113 24.6139 720.238Z" fill="white"/>
</g>
<defs>
<clipPath id="clip0_103_5">
<rect width="142" height="816" fill="white"/>
</clipPath>
</defs>
</svg>
